<svg xmlns="http://www.w3.org/2000/svg" width="1024" height="1024" viewBox="0 0 128 128">
  <defs>
    <linearGradient id="bgn" x1="18" y1="10" x2="110" y2="122" gradientUnits="userSpaceOnUse">
      <stop offset="0" stop-color="#f8fbff"/>
      <stop offset="0.58" stop-color="#eef5fb"/>
      <stop offset="1" stop-color="#f7efe8"/>
    </linearGradient>
    <linearGradient id="noteBlue" x1="42" y1="55" x2="78" y2="88" gradientUnits="userSpaceOnUse">
      <stop offset="0" stop-color="#eaf4ff"/>
      <stop offset="1" stop-color="#d9ebfa"/>
    </linearGradient>
    <linearGradient id="noteGreen" x1="51" y1="52" x2="91" y2="88" gradientUnits="userSpaceOnUse">
      <stop offset="0" stop-color="#edf8f1"/>
      <stop offset="1" stop-color="#dcefe5"/>
    </linearGradient>
    <linearGradient id="noteWhite" x1="33" y1="43" x2="82" y2="91" gradientUnits="userSpaceOnUse">
      <stop offset="0" stop-color="#ffffff"/>
      <stop offset="1" stop-color="#f8fbfd"/>
    </linearGradient>
    <linearGradient id="ambern" x1="83" y1="78" x2="105" y2="101" gradientUnits="userSpaceOnUse">
      <stop offset="0" stop-color="#f5b761"/>
      <stop offset="1" stop-color="#c8713a"/>
    </linearGradient>
    <filter id="shadown" x="-18%" y="-18%" width="136%" height="140%">
      <feDropShadow dx="0" dy="7" stdDeviation="6" flood-color="#26445f" flood-opacity="0.18"/>
    </filter>
  </defs>

  <rect x="6" y="6" width="116" height="116" rx="27" fill="url(#bgn)"/>
  <rect x="6.75" y="6.75" width="114.5" height="114.5" rx="26.25" fill="none" stroke="#d8e2ea" stroke-width="1.5"/>

  <g filter="url(#shadown)">
    <rect x="26" y="34" width="76" height="62" rx="13" fill="#ffffff"/>
    <rect x="26" y="34" width="76" height="62" rx="13" fill="none" stroke="#d1dce5" stroke-width="2"/>
    <path d="M26 47c0-7.18 5.82-13 13-13h50c7.18 0 13 5.82 13 13v5H26v-5Z" fill="#dbeaf6"/>
    <circle cx="39" cy="43.5" r="3" fill="#ea6b6b"/>
    <circle cx="49" cy="43.5" r="3" fill="#f2b84b"/>
    <circle cx="59" cy="43.5" r="3" fill="#58b889"/>

    <rect x="49" y="57" width="35" height="27" rx="7" fill="url(#noteGreen)" transform="rotate(5 66.5 70.5)"/>
    <rect x="42" y="61" width="35" height="27" rx="7" fill="url(#noteBlue)" transform="rotate(-6 59.5 74.5)"/>
    <rect x="35" y="53" width="42" height="32" rx="8" fill="url(#noteWhite)"/>
    <rect x="35" y="53" width="42" height="32" rx="8" fill="none" stroke="#d7e2eb" stroke-width="1.6"/>
  </g>

  <path d="M45 64h20" stroke="#2f7fd0" stroke-width="4.4" stroke-linecap="round"/>
  <path d="M45 74h16" stroke="#c7d8e5" stroke-width="4.4" stroke-linecap="round"/>
  <path d="M82 80c6.6 0 12-5.4 12-12 0 6.6 5.4 12 12 12-6.6 0-12 5.4-12 12 0-6.6-5.4-12-12-12Z" fill="url(#ambern)"/>
</svg>
